<svg width="280" height="260" xmlns="http://www.w3.org/2000/svg">
 <g>
  <title>Layer 1</title>
  <rect fill="#e01e5a" x="0.00381" y="194.80509" width="280.14248" height="65" id="svg_5"/>
  <rect fill="#2eb67d" x="0.00381" y="65.80509" width="280.14248" height="65" id="svg_4"/>
  <rect fill="#36c5f0" x="0.00381" y="-0.19491" width="280.14248" height="66" id="svg_2"/>
  <rect fill="#ecb22e" x="0.00381" y="130.80509" width="280.14248" height="65" id="svg_3"/>
  <path d="m160.50386,23.09325c-1.59241,0 -3.07107,0.34124 -4.43601,0.7962c2.90046,1.93364 4.49288,4.49291 5.28911,7.39338c0.05703,0.3981 0.17062,0.68247 0.22756,1.08055c0.05703,0.34124 0.11367,0.68248 0.11367,1.02372c0.2276,5.00472 -1.30808,5.63032 -2.38863,8.58766c-1.6493,3.81044 -1.19434,7.90522 0.7962,11.20381c0.17063,0.39809 0.39811,0.85306 0.68249,1.25117c-2.16117,-14.38862 9.83886,-16.54976 12.05684,-21.04264c0.17062,-3.92419 -3.07107,-6.5403 -5.63031,-8.36021c-2.4455,-1.47866 -4.66354,-1.93364 -6.71092,-1.93364zm18.08531,3.24171c-0.22758,1.30806 -0.05694,0.96682 -0.11365,1.64929c-0.05694,0.45497 -0.05694,1.0237 -0.11366,1.47866c-0.11366,0.45498 -0.2276,0.90995 -0.39812,1.36495c-0.11365,0.45496 -0.28435,0.90994 -0.45496,1.36491c-0.2276,0.455 -0.39811,0.85309 -0.6256,1.30806c-0.17061,0.22759 -0.28435,0.45497 -0.45497,0.68248c-0.11366,0.17061 -0.22758,0.34123 -0.34123,0.51184c-0.28435,0.39812 -0.56873,0.7962 -0.85308,1.13744c-0.34125,0.34124 -0.62561,0.73932 -1.02373,1.02371l0,0.05694c-0.34123,0.28436 -0.68246,0.62559 -1.08055,0.90994c-1.19432,0.90994 -2.55923,1.59242 -3.81043,2.4455c-0.39808,0.28434 -0.79621,0.51185 -1.13743,0.85309c-0.3981,0.28434 -0.73934,0.5687 -1.08056,0.90994c-0.39812,0.34123 -0.68248,0.68247 -1.02372,1.08058c-0.28435,0.34124 -0.62558,0.73933 -0.85306,1.13745c-0.28438,0.39809 -0.56872,0.7962 -0.79623,1.19429c-0.22757,0.45497 -0.3981,0.85309 -0.62559,1.30806c-0.17061,0.45496 -0.34124,0.85309 -0.45497,1.30805c-0.17062,0.51186 -0.28436,0.96684 -0.39811,1.42183c-0.05694,0.22758 -0.05694,0.51183 -0.11366,0.73932c-0.05703,0.22759 -0.05703,0.45497 -0.11365,0.68247c0,0.45497 -0.05694,0.96682 -0.05694,1.42179c0,0.34124 0,0.68247 0.05694,1.02371c0,0.45497 0.05694,0.90993 0.17061,1.42178c0.05694,0.45497 0.1706,0.90995 0.28438,1.36495c0.17062,0.45496 0.28436,0.90994 0.45496,1.36491c0.11367,0.28438 0.28435,0.56873 0.39812,0.7962l-13.08058,-5.06161c-2.21802,-0.6256 -4.37914,-1.19429 -6.59716,-1.70615c-1.1943,-0.28434 -2.38861,-0.56872 -3.58293,-0.85309c-3.41234,-0.68246 -6.8815,-1.19429 -10.35071,-1.53552c-0.11365,0 -0.17061,-0.05695 -0.28435,-0.05695c-3.41234,-0.34123 -6.76777,-0.51184 -10.18009,-0.51184c-2.50239,0 -5.00477,0.11365 -7.45027,0.28435c-3.4692,0.22758 -6.9384,0.68247 -10.40757,1.25117c-0.85309,0.11367 -1.70618,0.28439 -2.55927,0.45501c-1.76303,0.34121 -3.46917,0.73932 -5.11846,1.13743c-0.85309,0.22759 -1.70617,0.45498 -2.55926,0.68245c-0.85306,0.34123 -1.64926,0.73935 -2.4455,1.08058c-0.62559,0.28434 -1.25118,0.56871 -1.87676,0.85309c-0.11366,0.05695 -0.22758,0.05695 -0.28435,0.11366c-0.56873,0.28435 -1.08058,0.51183 -1.59241,0.7962c-0.17062,0.05695 -0.28438,0.11365 -0.39812,0.17062c-0.62559,0.28435 -1.25118,0.62558 -1.76303,0.90994c-0.39812,0.17062 -0.7962,0.39811 -1.13744,0.56873c-0.17062,0.11366 -0.39812,0.22758 -0.51185,0.28435c-0.51185,0.28435 -1.0237,0.56871 -1.47867,0.85309c-0.51185,0.28435 -0.96682,0.56871 -1.36494,0.85306c-0.39809,0.28438 -0.7962,0.51185 -1.13744,0.7962c-0.05698,0.05695 -0.11366,0.05695 -0.17063,0.11366c-0.34123,0.22759 -0.73931,0.51184 -1.08055,0.79623c0,0 -0.05697,0.05694 -0.11366,0.11366c-0.28435,0.22758 -0.56874,0.45497 -0.85309,0.68244c-0.11366,0.05695 -0.22759,0.17061 -0.34123,0.22758c-0.28435,0.22759 -0.56871,0.51186 -0.85307,0.73935c-0.05697,0.11366 -0.17061,0.17062 -0.22758,0.22759c-0.34123,0.34123 -0.68247,0.62558 -1.0237,0.96682c-0.05697,0 -0.05697,0.05695 -0.11366,0.11365c-0.34123,0.28436 -0.68247,0.62559 -1.0237,0.96683c-0.05697,0.05695 -0.05697,0.11365 -0.11366,0.11365c-0.28435,0.28435 -0.56871,0.56873 -0.85309,0.90994c-0.11365,0.11366 -0.28435,0.22759 -0.39809,0.34123c-0.28435,0.34123 -0.62559,0.68247 -0.96682,1.02371c-0.05697,0.11365 -0.17062,0.17062 -0.22758,0.28434c-0.45497,0.45501 -0.85309,0.90997 -1.30806,1.36495c-0.05697,0.05695 -0.11366,0.11365 -0.17062,0.17062c-0.90997,0.96682 -1.87679,1.93364 -2.90047,2.78672c-1.0237,0.90994 -2.10426,1.76303 -3.18485,2.50236c-1.13745,0.79623 -2.21801,1.47867 -3.41233,2.16114c-1.13744,0.62557 -2.33176,1.19431 -3.58293,1.70617c-1.19432,0.51184 -2.4455,0.96683 -3.69667,1.36491c-2.38864,0.51184 -4.83415,1.47867 -6.93841,1.64929c-0.45497,0 -0.96682,0.11367 -1.42179,0.17061c-0.51185,0.11366 -0.96682,0.22759 -1.42179,0.34125c-0.45497,0.1706 -0.90997,0.34123 -1.36494,0.51183c-0.45497,0.17062 -0.90994,0.39812 -1.36491,0.62561c-0.39812,0.28434 -0.85309,0.51184 -1.2512,0.7962c-0.3981,0.28435 -0.79621,0.62558 -1.13745,0.96682c-0.39809,0.28438 -0.7962,0.68248 -1.13744,1.02369c-0.34123,0.39813 -0.68247,0.73936 -0.96682,1.13744c-0.28435,0.45497 -0.62559,0.85309 -0.85309,1.30807c-0.28435,0.39812 -0.56871,0.85308 -0.7962,1.30803c-0.22758,0.51188 -0.45497,0.96684 -0.62559,1.4787c-0.17062,0.45497 -0.34123,0.96681 -0.51185,1.47867c-0.11366,0.45496 -0.22758,0.90994 -0.28435,1.36489c0,0.05703 -0.05696,0.11367 -0.05696,0.17063c-0.11366,0.51188 -0.11366,1.19436 -0.17062,1.5356c-0.05696,0.39809 -0.11366,0.73931 -0.11366,1.13743c0,0.22758 0,0.51183 0.05696,0.73931c0.05696,0.39812 0.11366,0.73935 0.22758,1.08061c0.11366,0.34118 0.22758,0.68242 0.39809,1.02367l0,0.05694c0.17062,0.34126 0.39812,0.68248 0.62559,1.02371c0.22759,0.34123 0.455,0.68247 0.73935,1.02371c0.28435,0.28435 0.6256,0.62556 0.96682,0.90993c0.34124,0.34123 0.68248,0.62559 1.08057,0.90994c1.36494,1.19433 1.70617,1.59244 3.4692,2.50238c0.28435,0.17063 0.56873,0.28437 0.90997,0.45499c0.05697,0 0.11366,0.05694 0.17062,0.05694c0,0.11365 0,0.17063 0.05697,0.28439c0.05696,0.45498 0.17062,0.90993 0.28435,1.36492c0.11366,0.51185 0.28438,0.96684 0.455,1.36493c0.17062,0.34124 0.28435,0.68246 0.45497,1.02371c0.05696,0.11367 0.11366,0.22758 0.17062,0.28435c0.22758,0.45496 0.45497,0.8531 0.68244,1.25118c0.28438,0.3981 0.56873,0.7962 0.85309,1.19433c0.28435,0.34122 0.62559,0.73932 0.96682,1.08055c0.34123,0.34124 0.68248,0.62561 1.08059,0.96681c0,0 0.05697,0.05703 0.11365,0.05703c0.34124,0.28438 0.68247,0.56874 1.02371,0.7962c0.39809,0.28437 0.7962,0.51184 1.25117,0.73935c0.39812,0.22758 0.85309,0.45497 1.30807,0.6256c0.34123,0.17062 0.73932,0.28437 1.13744,0.39811c0.05697,0.05703 0.11366,0.05703 0.22758,0.11367c0.22758,0.05703 0.51183,0.11364 0.73932,0.1706c-0.17062,3.07108 -0.22758,5.97155 0.22758,6.99527c0.51183,1.13743 3.0142,-2.33176 5.51659,-6.31279c-0.34123,3.92417 -0.56873,8.53077 0,9.89574c0.62559,1.42177 4.03791,-3.01425 6.99525,-7.90524c40.32225,-9.32698 77.1185,18.5403 80.98578,57.89573c-0.73934,-6.14218 -8.30332,-9.55449 -11.77249,-8.7014c-1.70618,4.20851 -4.60665,9.61135 -9.27014,12.9668c0.3981,-3.75356 0.22756,-7.62084 -0.56872,-11.37441c-1.2512,5.23223 -3.69671,10.12325 -7.05217,14.33177c-5.40284,0.39809 -10.80569,-2.21803 -13.64931,-6.14218c-0.22758,-0.17063 -0.28435,-0.51186 -0.45497,-0.73934c-0.17062,-0.39814 -0.34123,-0.7962 -0.45497,-1.19433c-0.17062,-0.39809 -0.28435,-0.7962 -0.34123,-1.19429c-0.05697,-0.39812 -0.05697,-0.79622 -0.05697,-1.25118c0,-0.28438 0,-0.56872 0,-0.85307c0.05697,-0.39814 0.17062,-0.79624 0.28435,-1.19435c0.11366,-0.39809 0.22758,-0.7962 0.39812,-1.19431c0.22758,-0.39808 0.39809,-0.7962 0.68247,-1.19429c0.96682,-2.72989 0.96682,-4.94788 -0.7962,-6.25593c-0.34123,-0.22758 -0.68247,-0.39812 -1.08058,-0.56874c-0.22758,-0.05694 -0.51185,-0.17062 -0.73932,-0.22757c-0.17062,-0.05694 -0.28435,-0.11367 -0.45497,-0.17063c-0.39812,-0.11366 -0.79623,-0.22759 -1.19432,-0.28435c-0.39812,-0.11365 -0.7962,-0.17062 -1.19432,-0.17062c-0.39809,-0.05703 -0.85309,-0.11366 -1.25118,-0.11366c-0.28434,0 -0.56873,0.05694 -0.85309,0.05694c-0.45497,0 -0.85309,0.05703 -1.25118,0.17062c-0.39812,0.05703 -0.7962,0.11365 -1.19432,0.22756c-0.39809,0.11367 -0.7962,0.22759 -1.19432,0.39814c-0.39809,0.17061 -0.73932,0.34123 -1.13744,0.51184c-0.34121,0.17063 -0.68244,0.39809 -1.08056,0.56871c-13.25119,8.64454 -5.34596,28.89099 3.69667,34.74881c-3.41232,0.62559 -6.88149,1.36496 -7.84831,2.10426c-0.05697,0.05694 -0.11366,0.11367 -0.11366,0.11367c2.4455,1.47866 5.00473,2.72985 7.6777,3.81041c3.63982,1.19432 7.50711,2.27489 9.21329,2.72988l0,0.05694c4.72037,0.96683 9.49764,1.30807 14.33176,1.02371c25.19432,-1.76304 45.83887,-20.92893 49.59244,-46.1801c0.11366,0.51186 0.22758,0.96681 0.34123,1.47868c0.17063,1.02367 0.39809,2.10424 0.51183,3.18481l0,0.05703c0.11366,0.51185 0.17062,1.02369 0.22758,1.47866l0,0.22759c0.05703,0.51184 0.11367,1.0237 0.11367,1.47866c0.05694,0.6256 0.11366,1.25118 0.11366,1.8768l0,0.90994c0,0.28438 0.05694,0.62558 0.05694,0.90996c0,0.34124 -0.05694,0.68245 -0.05694,1.02369l0,0.7962c0,0.39812 -0.05703,0.73934 -0.05703,1.13745c0,0.22756 0,0.45498 -0.05694,0.73934c0,0.39812 -0.05694,0.7962 -0.05694,1.25118c-0.05703,0.17062 -0.05703,0.34123 -0.05703,0.51186c-0.05694,0.45498 -0.11366,0.85309 -0.17063,1.30807c0,0.17063 0,0.34123 -0.05694,0.51186c-0.05703,0.5687 -0.17061,1.08057 -0.22755,1.64926l0,0.05703l0,0.05694c-0.11366,0.51184 -0.2276,1.08056 -0.34126,1.5924l0,0.17063c-0.11364,0.51183 -0.22758,1.0237 -0.34122,1.53553c0,0.05703 -0.05694,0.17063 -0.05694,0.22756c-0.11367,0.51187 -0.2276,1.02371 -0.39809,1.53559l0,0.1706c-0.17062,0.5687 -0.34124,1.08056 -0.455,1.59241c-0.05694,0.05694 -0.05694,0.11366 -0.05694,0.11366c-0.17063,0.56873 -0.34123,1.13744 -0.51183,1.70615c-0.22758,0.56873 -0.39811,1.08058 -0.62559,1.6493c-0.22757,0.56872 -0.39812,1.13745 -0.62561,1.64928c-0.22759,0.56874 -0.45499,1.08059 -0.68246,1.64929l-0.05703,0c-0.2276,0.51184 -0.45501,1.08058 -0.73938,1.59244c-0.05694,0.17059 -0.11364,0.28435 -0.1706,0.39807c-0.05694,0.05703 -0.05694,0.11366 -0.11366,0.17063c-3.69667,7.45021 -9.15641,13.9905 -15.98103,19.109c-0.45497,0.28435 -0.90996,0.6256 -1.36492,0.96681c-0.11367,0.11367 -0.28438,0.17063 -0.39812,0.28435c-0.39812,0.28436 -0.79621,0.56871 -1.25117,0.85309l0.17061,0.34123l0.05694,0c0.7962,-0.11365 1.59241,-0.22758 2.38862,-0.34123l0.05694,0c1.47868,-0.22758 2.95736,-0.51185 4.43604,-0.7962c0.39808,-0.05703 0.85309,-0.17061 1.25117,-0.28438c0.28435,-0.05703 0.51185,-0.11365 0.7962,-0.17062c0.39812,-0.05703 0.79621,-0.17062 1.19434,-0.22757c0.34122,-0.11366 0.68246,-0.17063 1.02369,-0.28436c5.6872,-1.36495 11.2038,-3.24174 16.49286,-5.45972c-9.04262,12.34121 -21.15638,22.29383 -35.31752,28.83411c6.5403,-0.45498 13.08057,-1.53554 19.39337,-3.35544c22.91944,-6.76781 42.19904,-22.1801 53.74406,-42.9384c-2.33175,13.13745 -7.56398,25.64929 -15.29856,36.56873c5.51658,-3.63984 10.57819,-7.84837 15.18483,-12.62561c12.73933,-13.30805 21.09954,-30.19902 23.94311,-48.34123c1.93366,8.98579 2.50239,18.25596 1.6493,27.41234c41.06161,-57.27014 3.41232,-116.64454 -12.34122,-132.28434c-0.05703,-0.11365 -0.11366,-0.17062 -0.11366,-0.28435c-0.05703,0.05694 -0.05703,0.05694 -0.05703,0.11366c0,-0.05695 0,-0.05695 -0.05694,-0.11366c0,0.68247 -0.05694,1.36491 -0.11366,2.04738c-0.17063,1.30806 -0.34123,2.55924 -0.56873,3.81044c-0.28434,1.25118 -0.62559,2.50233 -0.96683,3.75354c-0.39809,1.19429 -0.85304,2.44548 -1.36491,3.63981c-0.51185,1.13742 -1.08058,2.33174 -1.70616,3.4692c-0.6256,1.08058 -1.30806,2.21801 -2.04738,3.24169c-0.73934,1.08059 -1.53555,2.10427 -2.33178,3.07107c-0.85309,1.02372 -1.76302,1.93368 -2.67299,2.84363c-0.56871,0.51185 -1.08055,0.96682 -1.6493,1.42177c-0.45496,0.39812 -0.85306,0.73937 -1.30806,1.13744c-1.02369,0.79621 -2.04738,1.53555 -3.18481,2.21803c-1.08058,0.68245 -2.21799,1.36492 -3.35544,1.93365c-1.19432,0.56872 -2.38864,1.08056 -3.58294,1.59242c-1.19432,0.45495 -2.4455,0.85307 -3.69671,1.19431c-1.25117,0.34122 -2.55921,0.62559 -3.81041,0.85307c-1.30804,0.22758 -2.6161,0.34123 -3.86729,0.45499c-0.90996,0.05694 -1.8199,0.11367 -2.72987,0.11367c-1.30807,0 -2.6161,-0.11367 -3.86729,-0.22758c-1.30805,-0.11366 -2.61612,-0.2844 -3.8673,-0.56875c-1.30806,-0.22758 -2.55926,-0.56873 -3.81044,-0.9668l-0.05694,0c1.25118,-0.11366 2.50238,-0.2276 3.75358,-0.45499c1.30803,-0.22758 2.55921,-0.51183 3.81042,-0.85309c1.25118,-0.34123 2.50236,-0.73934 3.69667,-1.1943c1.25118,-0.45498 2.4455,-1.02368 3.58295,-1.59243c1.1943,-0.56873 2.27488,-1.1943 3.41231,-1.87677c1.08056,-0.73933 2.16113,-1.47866 3.18483,-2.27489c1.0237,-0.7962 1.99051,-1.64926 2.90049,-2.55922c0.96682,-0.8531 1.81989,-1.81992 2.67298,-2.78675c0.85306,-1.02367 1.64928,-2.04737 2.38862,-3.07107c0.11367,-0.17063 0.22759,-0.39809 0.34125,-0.56872c0.5687,-0.90996 1.1374,-1.81991 1.64925,-2.72988c0.62561,-1.13744 1.19434,-2.27489 1.70617,-3.46917c0.51186,-1.19432 0.96684,-2.38865 1.36495,-3.63982c0.39809,-1.19433 0.68245,-2.4455 0.96682,-3.69667c0.22759,-1.30807 0.45496,-2.55927 0.56872,-3.81044c0.11366,-1.30805 0.22757,-2.61611 0.22757,-3.86729c0,-0.90996 -0.05703,-1.81991 -0.11364,-2.72985c-0.11367,-1.30805 -0.28437,-2.55926 -0.45498,-3.81043c-0.22759,-1.30806 -0.51184,-2.55923 -0.85309,-3.81044c-0.39808,-1.19429 -0.7962,-2.44549 -1.25117,-3.63978c-0.45501,-1.19433 -1.02369,-2.38864 -1.59244,-3.52609c-0.62559,-1.13744 -1.25117,-2.27488 -1.93363,-3.35544c-0.73933,-1.08056 -1.47869,-2.10426 -2.2749,-3.12797c-0.85306,-0.96682 -1.70615,-1.93364 -2.61612,-2.90047c-0.45496,-0.45496 -0.96682,-0.96682 -1.47866,-1.42178c-2.55923,-1.99053 -5.23223,-3.86732 -7.90519,-5.57347c-0.3981,-0.22758 -0.73933,-0.39812 -1.13745,-0.56874c-1.87679,-1.19429 -3.63982,-1.81991 -5.40283,-2.38861l-0.0001,-0.00032z" fill="#000000" fill-rule="evenodd" id="svg_1" stroke-dasharray="2,2"/>
 </g>

</svg>